<?xml version="1.0" encoding="UTF-8" standalone="no"?>
<svg
   xmlns:dc="http://purl.org/dc/elements/1.1/"
   xmlns:cc="http://creativecommons.org/ns#"
   xmlns:rdf="http://www.w3.org/1999/02/22-rdf-syntax-ns#"
   xmlns:svg="http://www.w3.org/2000/svg"
   xmlns="http://www.w3.org/2000/svg"
   xmlns:sodipodi="http://sodipodi.sourceforge.net/DTD/sodipodi-0.dtd"
   xmlns:inkscape="http://www.inkscape.org/namespaces/inkscape"
   inkscape:version="1.0 (4035a4fb49, 2020-05-01)"
   sodipodi:docname="it_IGP_4c.svg"
   id="svg147"
   version="1.2"
   viewBox="0 0 158.738 158.738"
   height="158.738pt"
   width="158.738pt">
  <metadata
     id="metadata153">
    <rdf:RDF>
      <cc:Work
         rdf:about="">
        <dc:format>image/svg+xml</dc:format>
        <dc:type
           rdf:resource="http://purl.org/dc/dcmitype/StillImage" />
        <dc:title></dc:title>
      </cc:Work>
    </rdf:RDF>
  </metadata>
  <defs
     id="defs151" />
  <sodipodi:namedview
     inkscape:current-layer="svg147"
     inkscape:window-maximized="1"
     inkscape:window-y="-8"
     inkscape:window-x="1358"
     inkscape:cy="105.82534"
     inkscape:cx="105.82534"
     inkscape:zoom="2.5419243"
     showgrid="false"
     id="namedview149"
     inkscape:window-height="1017"
     inkscape:window-width="1920"
     inkscape:pageshadow="2"
     inkscape:pageopacity="0"
     guidetolerance="10"
     gridtolerance="10"
     objecttolerance="10"
     borderopacity="1"
     bordercolor="#666666"
     pagecolor="#ffffff" />
  <g
     transform="matrix(1.3442792,0,0,1.3442792,-28.586186,-24.553741)"
     id="surface28274">
    <path
       id="path10"
       d="m 84.507813,26.050781 4.933593,-5.441406 3.027344,6.710938 5.722656,-4.609375 1.945314,7.101562 6.375,-3.652344 0.80859,7.320313 6.86719,-2.613281 -0.34375,7.355468 7.18359,-1.503906 -1.48828,7.210938 7.33594,-0.359375 -2.59766,6.890625 7.30078,0.792968 -3.64062,6.394532 7.08984,1.925781 -4.59765,5.75 6.69531,3.011719 -5.4375,4.957031 6.14453,4.027344 -6.14844,4.042968 5.44141,4.9375 -6.70703,3.035157 4.60547,5.726562 -7.09375,1.945313 3.64843,6.378907 -7.30859,0.80859 2.60547,6.875 -7.34766,-0.34765 1.5,7.19922 -7.20312,-1.49219 0.35937,7.34375 -6.88281,-2.60156 -0.79297,7.30859 -6.39453,-3.64844 -1.921874,7.09375 -5.746093,-4.60156 -3.007813,6.70703 -4.953125,-5.44531 -4.023437,6.15234 -4.042969,-6.15625 -4.933594,5.44922 -3.027344,-6.71094 -5.726562,4.60547 -1.941406,-7.09765 -6.375,3.65234 -0.808594,-7.32031 -6.867188,2.60937 0.34375,-7.35547 -7.1875,1.50782 1.488282,-7.21485 -7.335938,0.35938 2.597656,-6.89063 -7.300781,-0.78906 3.640625,-6.398439 -7.085937,-1.929687 4.597656,-5.746094 -6.699219,-3.011719 5.4375,-4.957031 -6.144531,-4.027344 6.144531,-4.042968 -5.4375,-4.9375 6.703125,-3.03125 -4.601562,-5.730469 7.09375,-1.945313 -3.648438,-6.382812 7.3125,-0.804688 -2.609375,-6.875 7.347656,0.34375 -1.503906,-7.195312 7.207031,1.488281 -0.359375,-7.339844 6.882813,2.601563 0.792969,-7.308594 6.394531,3.644531 1.925781,-7.09375 5.742188,4.601563 3.011718,-6.707031 4.953125,5.445312 4.023438,-6.148437 z m 0,0"
       style="fill:#2347a3;fill-opacity:1;fill-rule:nonzero;stroke:none" />
    <path
       id="path12"
       d="m 30.28125,77.316406 c 0,-27.734375 22.464844,-50.222656 50.179688,-50.222656 27.710942,0 50.179682,22.488281 50.179682,50.222656 0,27.734374 -22.46874,50.218754 -50.179682,50.218754 -27.714844,0 -50.179688,-22.48438 -50.179688,-50.218754"
       style="fill:#fddc19;fill-opacity:1;fill-rule:nonzero;stroke:none" />
    <path
       id="path14"
       d="m 30.28125,77.316406 c 0,-27.734375 22.464844,-50.222656 50.179688,-50.222656 27.710942,0 50.179682,22.488281 50.179682,50.222656 0,27.734374 -22.46874,50.218754 -50.179682,50.218754 -27.714844,0 -50.179688,-22.48438 -50.179688,-50.218754"
       style="fill:#fddc19;fill-opacity:1;fill-rule:nonzero;stroke:none" />
    <path
       id="path16"
       d="m 46.277344,77.292969 c 0,-18.878906 15.292969,-34.1875 34.160156,-34.1875 18.867188,0 34.15625,15.308594 34.15625,34.1875 0,18.878906 -15.289062,34.183591 -34.15625,34.183591 -18.867187,0 -34.160156,-15.304685 -34.160156,-34.183591"
       style="fill:#2347a3;fill-opacity:1;fill-rule:nonzero;stroke:none" />
    <path
       id="path18"
       d="m 46.277344,77.292969 c 0,-18.878906 15.292969,-34.1875 34.160156,-34.1875 18.867188,0 34.15625,15.308594 34.15625,34.1875 0,18.878906 -15.289062,34.183591 -34.15625,34.183591 -18.867187,0 -34.160156,-15.304685 -34.160156,-34.183591"
       style="fill:#2347a3;fill-opacity:1;fill-rule:nonzero;stroke:none" />
    <path
       id="path20"
       d="m 106.07422,61.382813 -1.05078,-3.03125 -1.01172,3.03125 h -3.26953 l 2.65234,1.878906 -1.01562,3.027344 2.64843,-1.878907 2.64454,1.878907 -0.96875,-3.019532 2.60546,-1.886718 z m 0,0"
       style="fill:#fddc19;fill-opacity:1;fill-rule:nonzero;stroke:none" />
    <path
       id="path22"
       d="M 95.5625,51.433594 94.511719,48.40625 93.5,51.4375 h -3.273437 l 2.652343,1.878906 -1.015625,3.027344 2.652344,-1.875 2.644531,1.875 -0.976562,-3.019531 2.609375,-1.886719 z m 0,0"
       style="fill:#fddc19;fill-opacity:1;fill-rule:nonzero;stroke:none" />
    <path
       id="path24"
       d="m 81.320313,47.507813 -1.054688,-3.03125 -1.007812,3.035156 h -3.273438 l 2.652344,1.875 -1.015625,3.027344 2.652344,-1.875 2.640625,1.875 -0.96875,-3.015625 2.605468,-1.886719 z m 0,0"
       style="fill:#fddc19;fill-opacity:1;fill-rule:nonzero;stroke:none" />
    <path
       id="path26"
       d="m 67.246094,51.4375 -1.050781,-3.03125 -1.011719,3.03125 -3.273438,0.0039 2.652344,1.875 -1.015625,3.027344 2.652344,-1.875 2.640625,1.875 -0.96875,-3.019531 2.605469,-1.882813 z m 0,0"
       style="fill:#fddc19;fill-opacity:1;fill-rule:nonzero;stroke:none" />
    <path
       id="path28"
       d="m 56.730469,61.382813 -1.050781,-3.03125 -1.011719,3.03125 h -3.269531 l 2.652343,1.878906 -1.015625,3.027344 2.652344,-1.878907 2.640625,1.878907 -0.972656,-3.019532 2.609375,-1.886718 z m 0,0"
       style="fill:#fddc19;fill-opacity:1;fill-rule:nonzero;stroke:none" />
    <path
       id="path30"
       d="m 52.835938,76.417969 -1.050782,-3.03125 -1.011718,3.03125 -3.273438,0.0039 2.652344,1.875 -1.015625,3.03125 2.652344,-1.878906 2.640625,1.878906 -0.96875,-3.019531 2.605468,-1.886719 z m 0,0"
       style="fill:#fddc19;fill-opacity:1;fill-rule:nonzero;stroke:none" />
    <path
       id="path32"
       d="m 57.308594,90.128906 -1.050781,-3.03125 -1.011719,3.03125 -3.269531,0.0039 2.652343,1.875 -1.015625,3.03125 2.648438,-1.878907 2.644531,1.878907 -0.972656,-3.019532 2.609375,-1.886718 z m 0,0"
       style="fill:#fddc19;fill-opacity:1;fill-rule:nonzero;stroke:none" />
    <path
       id="path34"
       d="m 66.667969,100.07031 -1.050781,-3.023435 -1.011719,3.027345 h -3.273438 l 2.652344,1.87891 -1.015625,3.02734 2.652344,-1.87891 2.640625,1.87891 -0.96875,-3.01563 2.605469,-1.89062 z m 0,0"
       style="fill:#fddc19;fill-opacity:1;fill-rule:nonzero;stroke:none" />
    <path
       id="path36"
       d="m 81.320313,105.19922 -1.054688,-3.03125 -1.011719,3.03125 h -3.269531 l 2.652344,1.87891 -1.015625,3.02734 2.648437,-1.875 2.644532,1.875 -0.96875,-3.01953 2.605468,-1.88672 z m 0,0"
       style="fill:#fddc19;fill-opacity:1;fill-rule:nonzero;stroke:none" />
    <path
       id="path38"
       d="m 95.96875,100.07422 -1.050781,-3.031251 -1.011719,3.031251 -3.273437,0.004 2.65625,1.875 -1.015625,3.03125 2.648437,-1.87891 2.644531,1.87891 -0.972656,-3.01954 2.609375,-1.88671 z m 0,0"
       style="fill:#fddc19;fill-opacity:1;fill-rule:nonzero;stroke:none" />
    <path
       id="path40"
       d="m 105.33203,90.128906 -1.05469,-3.027343 -1.01171,3.03125 h -3.273442 l 2.656252,1.875 -1.01953,3.03125 2.65234,-1.878907 2.64453,1.878907 -0.96875,-3.019532 2.60547,-1.886718 z m 0,0"
       style="fill:#fddc19;fill-opacity:1;fill-rule:nonzero;stroke:none" />
    <path
       id="path42"
       d="m 110.14063,76.355469 -1.05079,-3.03125 -1.01171,3.03125 -3.27344,0.0039 2.65625,1.875 -1.01953,3.03125 2.65234,-1.882812 2.64453,1.882812 -0.96875,-3.023437 2.60156,-1.882813 z m 0,0"
       style="fill:#fddc19;fill-opacity:1;fill-rule:nonzero;stroke:none" />
    <path
       id="path44"
       d="m 92.207031,95.390625 c -5.9375,-6.230469 -18.265625,-11.75 -32.890625,-13.960937 L 59.25,81.058594 c -0.15625,-0.886719 -0.257812,-1.769531 -0.300781,-2.648438 15.144531,2.175782 28.878906,7.914063 35.617187,15.199219 -0.738281,0.644531 -1.527343,1.238281 -2.359375,1.78125"
       style="fill:#fddc19;fill-opacity:1;fill-rule:nonzero;stroke:none" />
    <path
       id="path46"
       d="M 83.15625,98.703125 C 80.410156,94.019531 72.035156,89.433594 61.351563,87.273438 c -0.535157,-1.027344 -0.988282,-2.105469 -1.359375,-3.234375 12.261718,2.113281 23.054687,7.46875 26.167968,14.066406 -0.640625,0.175781 -1.292968,0.324219 -1.957031,0.441406 -0.351562,0.05859 -0.699219,0.113281 -1.046875,0.15625"
       style="fill:#fddc19;fill-opacity:1;fill-rule:nonzero;stroke:none" />
    <path
       id="path48"
       d="m 63.058594,90.027344 c 5.757812,1.542969 10.644531,4.277344 12.257812,8.230469 -4.921875,-1.21875 -9.273437,-4.144532 -12.257812,-8.230469"
       style="fill:#fddc19;fill-opacity:1;fill-rule:nonzero;stroke:none" />
    <path
       id="path50"
       d="m 80.847656,78.121094 c 7.398438,-2.035156 14.863282,-2.808594 21.105474,-2.242188 0.0508,0.753907 0.0625,1.5 0.0352,2.238282 -5.031249,-0.492188 -11.101561,-0.07813 -17.460936,1.363281 1.085937,0.429687 2.148437,0.871094 3.1875,1.332031 5.203125,-0.800781 10.160156,-0.695312 13.933596,0.410156 -0.13281,0.734375 -0.3086,1.457032 -0.51953,2.167969 -2.546879,-0.761719 -5.875004,-1.050781 -9.613285,-0.785156 2.9375,1.484375 5.613281,3.089844 7.984375,4.792969 -0.457031,0.863281 -0.96875,1.691406 -1.539062,2.484375 -8.917969,-6.464844 -23,-11.773438 -38.996094,-13.996094 0.0625,-0.976563 0.191406,-1.9375 0.386719,-2.878906 5.023437,0.703125 9.925781,1.710937 14.578125,2.976562 9.199218,-3.199219 18.765625,-4.84375 27.156252,-4.886719 0.21484,0.714844 0.39453,1.449219 0.53515,2.199219 -7.218746,-0.03125 -15.542965,1.179688 -23.953121,3.777344 1.074219,0.335937 2.132812,0.683594 3.179687,1.046875"
       style="fill:#fddc19;fill-opacity:1;fill-rule:nonzero;stroke:none" />
    <path
       id="path52"
       d="m 106.07422,61.382813 -1.05078,-3.03125 -1.01172,3.03125 h -3.26953 l 2.65234,1.878906 -1.01562,3.027344 2.64843,-1.878907 2.64454,1.878907 -0.96875,-3.019532 2.60546,-1.886718 z m 0,0"
       style="fill:#fddc19;fill-opacity:1;fill-rule:nonzero;stroke:none" />
    <path
       id="path54"
       d="M 95.5625,51.433594 94.511719,48.40625 93.5,51.4375 h -3.273437 l 2.652343,1.878906 -1.015625,3.027344 2.652344,-1.875 2.644531,1.875 -0.976562,-3.019531 2.609375,-1.886719 z m 0,0"
       style="fill:#fddc19;fill-opacity:1;fill-rule:nonzero;stroke:none" />
    <path
       id="path56"
       d="m 81.320313,47.507813 -1.054688,-3.03125 -1.007812,3.035156 h -3.273438 l 2.652344,1.875 -1.015625,3.027344 2.652344,-1.875 2.640625,1.875 -0.96875,-3.015625 2.605468,-1.886719 z m 0,0"
       style="fill:#fddc19;fill-opacity:1;fill-rule:nonzero;stroke:none" />
    <path
       id="path58"
       d="m 67.246094,51.4375 -1.050781,-3.03125 -1.011719,3.03125 -3.273438,0.0039 2.652344,1.875 -1.015625,3.027344 2.652344,-1.875 2.640625,1.875 -0.96875,-3.019531 2.605469,-1.882813 z m 0,0"
       style="fill:#fddc19;fill-opacity:1;fill-rule:nonzero;stroke:none" />
    <path
       id="path60"
       d="m 56.730469,61.382813 -1.050781,-3.03125 -1.011719,3.03125 h -3.269531 l 2.652343,1.878906 -1.015625,3.027344 2.652344,-1.878907 2.640625,1.878907 -0.972656,-3.019532 2.609375,-1.886718 z m 0,0"
       style="fill:#fddc19;fill-opacity:1;fill-rule:nonzero;stroke:none" />
    <path
       id="path62"
       d="m 52.835938,76.417969 -1.050782,-3.03125 -1.011718,3.03125 -3.273438,0.0039 2.652344,1.875 -1.015625,3.03125 2.652344,-1.878906 2.640625,1.878906 -0.96875,-3.019531 2.605468,-1.886719 z m 0,0"
       style="fill:#fddc19;fill-opacity:1;fill-rule:nonzero;stroke:none" />
    <path
       id="path64"
       d="m 57.308594,90.128906 -1.050781,-3.03125 -1.011719,3.03125 -3.269531,0.0039 2.652343,1.875 -1.015625,3.03125 2.648438,-1.878907 2.644531,1.878907 -0.972656,-3.019532 2.609375,-1.886718 z m 0,0"
       style="fill:#fddc19;fill-opacity:1;fill-rule:nonzero;stroke:none" />
    <path
       id="path66"
       d="m 66.667969,100.07031 -1.050781,-3.023435 -1.011719,3.027345 h -3.273438 l 2.652344,1.87891 -1.015625,3.02734 2.652344,-1.87891 2.640625,1.87891 -0.96875,-3.01563 2.605469,-1.89062 z m 0,0"
       style="fill:#fddc19;fill-opacity:1;fill-rule:nonzero;stroke:none" />
    <path
       id="path68"
       d="m 81.320313,105.19922 -1.054688,-3.03125 -1.011719,3.03125 h -3.269531 l 2.652344,1.87891 -1.015625,3.02734 2.648437,-1.875 2.644532,1.875 -0.96875,-3.01953 2.605468,-1.88672 z m 0,0"
       style="fill:#fddc19;fill-opacity:1;fill-rule:nonzero;stroke:none" />
    <path
       id="path70"
       d="m 95.96875,100.07422 -1.050781,-3.031251 -1.011719,3.031251 -3.273437,0.004 2.65625,1.875 -1.015625,3.03125 2.648437,-1.87891 2.644531,1.87891 -0.972656,-3.01954 2.609375,-1.88671 z m 0,0"
       style="fill:#fddc19;fill-opacity:1;fill-rule:nonzero;stroke:none" />
    <path
       id="path72"
       d="m 105.33203,90.128906 -1.05469,-3.027343 -1.01171,3.03125 h -3.273442 l 2.656252,1.875 -1.01953,3.03125 2.65234,-1.878907 2.64453,1.878907 -0.96875,-3.019532 2.60547,-1.886718 z m 0,0"
       style="fill:#fddc19;fill-opacity:1;fill-rule:nonzero;stroke:none" />
    <path
       id="path74"
       d="m 110.14063,76.355469 -1.05079,-3.03125 -1.01171,3.03125 -3.27344,0.0039 2.65625,1.875 -1.01953,3.03125 2.65234,-1.882812 2.64453,1.882812 -0.96875,-3.023437 2.60156,-1.882813 z m 0,0"
       style="fill:#fddc19;fill-opacity:1;fill-rule:nonzero;stroke:none" />
    <path
       id="path76"
       d="m 92.207031,95.390625 c -5.9375,-6.230469 -18.265625,-11.75 -32.890625,-13.960937 L 59.25,81.058594 c -0.15625,-0.886719 -0.257812,-1.769531 -0.300781,-2.648438 15.144531,2.175782 28.878906,7.914063 35.617187,15.199219 -0.738281,0.644531 -1.527343,1.238281 -2.359375,1.78125"
       style="fill:#fddc19;fill-opacity:1;fill-rule:nonzero;stroke:none" />
    <path
       id="path78"
       d="M 83.15625,98.703125 C 80.410156,94.019531 72.035156,89.433594 61.351563,87.273438 c -0.535157,-1.027344 -0.988282,-2.105469 -1.359375,-3.234375 12.261718,2.113281 23.054687,7.46875 26.167968,14.066406 -0.640625,0.175781 -1.292968,0.324219 -1.957031,0.441406 -0.351562,0.05859 -0.699219,0.113281 -1.046875,0.15625"
       style="fill:#fddc19;fill-opacity:1;fill-rule:nonzero;stroke:none" />
    <path
       id="path80"
       d="m 63.058594,90.027344 c 5.757812,1.542969 10.644531,4.277344 12.257812,8.230469 -4.921875,-1.21875 -9.273437,-4.144532 -12.257812,-8.230469"
       style="fill:#fddc19;fill-opacity:1;fill-rule:nonzero;stroke:none" />
    <path
       id="path82"
       d="m 80.847656,78.121094 c 7.398438,-2.035156 14.863282,-2.808594 21.105474,-2.242188 0.0508,0.753907 0.0625,1.5 0.0352,2.238282 -5.031249,-0.492188 -11.101561,-0.07813 -17.460936,1.363281 1.085937,0.429687 2.148437,0.871094 3.1875,1.332031 5.203125,-0.800781 10.160156,-0.695312 13.933596,0.410156 -0.13281,0.734375 -0.3086,1.457032 -0.51953,2.167969 -2.546879,-0.761719 -5.875004,-1.050781 -9.613285,-0.785156 2.9375,1.484375 5.613281,3.089844 7.984375,4.792969 -0.457031,0.863281 -0.96875,1.691406 -1.539062,2.484375 -8.917969,-6.464844 -23,-11.773438 -38.996094,-13.996094 0.0625,-0.976563 0.191406,-1.9375 0.386719,-2.878906 5.023437,0.703125 9.925781,1.710937 14.578125,2.976562 9.199218,-3.199219 18.765625,-4.84375 27.156252,-4.886719 0.21484,0.714844 0.39453,1.449219 0.53515,2.199219 -7.218746,-0.03125 -15.542965,1.179688 -23.953121,3.777344 1.074219,0.335937 2.132812,0.683594 3.179687,1.046875"
       style="fill:#fddc19;fill-opacity:1;fill-rule:nonzero;stroke:none" />
    <path
       id="path84"
       d="M 53.414063,111.02734 C 53.148438,110.81641 53,110.54297 52.960938,110.20703 c -0.03516,-0.33984 0.05078,-0.64062 0.261718,-0.90234 0.210938,-0.26563 0.484375,-0.41797 0.824219,-0.45313 0.335938,-0.0391 0.636719,0.0508 0.898438,0.26172 0.265625,0.21094 0.414062,0.48438 0.453125,0.82031 0.03516,0.33594 -0.05078,0.63672 -0.261719,0.90235 -0.210938,0.26172 -0.484375,0.41797 -0.820313,0.45312 -0.335937,0.0391 -0.636718,-0.0508 -0.902343,-0.26172"
       style="fill:#2347a3;fill-opacity:1;fill-rule:nonzero;stroke:none" />
    <path
       id="path86"
       d="m 50.839844,102.56641 0.132812,-0.1211 1.929688,2.07813 -0.132813,0.12109 -0.160156,-0.17187 c -0.1875,-0.19922 -0.378906,-0.28907 -0.582031,-0.27344 -0.128906,0.0156 -0.339844,0.15625 -0.628906,0.42969 l -3.136719,2.90625 c -0.246094,0.22656 -0.390625,0.39453 -0.441406,0.5 -0.03906,0.0781 -0.04297,0.17578 -0.01953,0.28906 0.04297,0.15625 0.113282,0.29297 0.222657,0.40625 l 0.15625,0.17187 -0.132813,0.125 -1.929687,-2.07812 0.13281,-0.125 L 46.414063,107 c 0.183593,0.19922 0.375,0.28906 0.578125,0.26953 0.128906,-0.0117 0.339843,-0.15234 0.632812,-0.42187 l 3.136719,-2.91016 c 0.246094,-0.22656 0.390625,-0.39062 0.441406,-0.49609 0.03906,-0.082 0.04297,-0.17969 0.01563,-0.29297 -0.03906,-0.15625 -0.109375,-0.29297 -0.21875,-0.40625 z m 0,0"
       style="fill:#2347a3;fill-opacity:1;fill-rule:nonzero;stroke:none" />
    <path
       id="path88"
       d="m 45.34375,106.24219 -1.035156,-1.46875 1.730469,-6.167971 -3.121094,2.199221 c -0.332031,0.23047 -0.515625,0.41797 -0.542969,0.54687 -0.04297,0.17969 0.01172,0.375 0.160156,0.58594 l 0.132813,0.1875 -0.148438,0.10547 -1.328125,-1.88281 0.148438,-0.10547 0.136719,0.1914 c 0.160156,0.22657 0.34375,0.33985 0.550781,0.33985 0.125,0 0.339844,-0.10938 0.644531,-0.32422 l 4.5625,-3.210939 0.101563,0.144532 -1.847657,6.636717 3.332032,-2.34375 c 0.335937,-0.23437 0.515625,-0.41797 0.546875,-0.54687 0.04297,-0.17969 -0.01172,-0.375 -0.160157,-0.58594 l -0.132812,-0.19141 0.148437,-0.10547 1.324219,1.88672 -0.148437,0.10157 -0.128907,-0.1836 c -0.164062,-0.23437 -0.351562,-0.35156 -0.554687,-0.34765 -0.128906,0 -0.34375,0.10937 -0.644531,0.32031 l -3.765625,2.65234 c -0.07422,0.28906 -0.109375,0.49219 -0.113282,0.61328 0,0.1211 0.02734,0.28125 0.08984,0.47266 0.03125,0.0937 0.09766,0.21875 0.210938,0.375 z m 0,0"
       style="fill:#2347a3;fill-opacity:1;fill-rule:nonzero;stroke:none" />
    <path
       id="path90"
       d="m 45.234375,94.730469 c -0.08984,-0.414063 -0.191406,-0.746094 -0.304687,-1 -0.3125,-0.6875 -0.8125,-1.148438 -1.503907,-1.386719 -0.6875,-0.234375 -1.445312,-0.164062 -2.273437,0.210938 -0.832031,0.378906 -1.386719,0.90625 -1.660156,1.574218 -0.277344,0.671875 -0.25,1.363282 0.07031,2.078125 0.121094,0.261719 0.300781,0.546875 0.542969,0.851563 z m 1.214844,1.523437 -0.164063,0.07813 -0.101562,-0.226562 C 46.066406,95.847656 45.902344,95.707031 45.691406,95.671875 45.5625,95.652344 45.328125,95.71875 44.988281,95.875 l -3.894531,1.761719 c -0.378906,0.171875 -0.59375,0.324219 -0.652344,0.449219 -0.07813,0.171875 -0.06641,0.375 0.03906,0.601562 l 0.101562,0.230469 -0.164062,0.07031 -1.113281,-2.453125 c -0.40625,-0.902343 -0.617188,-1.632812 -0.625,-2.195312 -0.0078,-0.5625 0.160156,-1.097656 0.507812,-1.597656 0.347656,-0.503907 0.835938,-0.898438 1.460938,-1.179688 0.839843,-0.378906 1.65625,-0.445312 2.449218,-0.1875 0.890625,0.285156 1.597657,1.015625 2.128907,2.1875 z m 0,0"
       style="fill:#2347a3;fill-opacity:1;fill-rule:nonzero;stroke:none" />
    <path
       id="path92"
       d="m 42.613281,86.863281 0.175782,-0.05078 0.800781,2.71875 -0.175781,0.05469 -0.06641,-0.226563 c -0.07422,-0.261719 -0.207031,-0.429687 -0.398437,-0.503906 -0.121094,-0.04687 -0.371094,-0.01172 -0.753906,0.09766 l -4.101563,1.207031 c -0.320312,0.09766 -0.527344,0.179688 -0.621094,0.25 -0.06641,0.05469 -0.117187,0.140625 -0.144531,0.25 -0.03516,0.160157 -0.02734,0.316407 0.01563,0.464844 l 0.06641,0.226563 -0.171875,0.05078 -0.800781,-2.722656 0.171875,-0.05078 0.06641,0.230469 c 0.07813,0.257813 0.210938,0.425781 0.398438,0.496094 0.121094,0.05078 0.375,0.01953 0.753906,-0.09375 l 4.105469,-1.207031 c 0.320312,-0.09375 0.527344,-0.175782 0.617187,-0.246094 0.07031,-0.05469 0.117188,-0.140625 0.144532,-0.257813 0.03516,-0.15625 0.03125,-0.308593 -0.01172,-0.457031 z m 0,0"
       style="fill:#2347a3;fill-opacity:1;fill-rule:nonzero;stroke:none" />
    <path
       id="path94"
       d="m 34.992188,81.679688 2.203125,-0.496094 0.01953,0.152344 c -0.632813,0.300781 -1.066406,0.660156 -1.304688,1.078125 -0.234375,0.414062 -0.3125,0.878906 -0.230468,1.398437 0.06641,0.433594 0.238281,0.808594 0.515625,1.125 0.273437,0.316406 0.667968,0.539063 1.179687,0.664063 0.515625,0.125 1.128906,0.132812 1.847656,0.02344 0.59375,-0.09375 1.089844,-0.269531 1.496094,-0.527344 0.402344,-0.253906 0.691406,-0.59375 0.863281,-1.011718 0.171875,-0.414063 0.222657,-0.867188 0.144532,-1.355469 -0.06641,-0.425781 -0.214844,-0.785156 -0.445313,-1.082031 -0.234375,-0.296875 -0.648437,-0.597657 -1.25,-0.90625 l 0.07422,-0.164063 c 0.632812,0.242188 1.117187,0.554688 1.457031,0.953125 0.335938,0.394531 0.550781,0.890625 0.644531,1.496094 0.167969,1.082031 -0.101562,1.984375 -0.8125,2.703125 -0.53125,0.535156 -1.199218,0.867187 -2.011718,0.996094 -0.652344,0.101562 -1.273438,0.04687 -1.867188,-0.160157 -0.59375,-0.207031 -1.078125,-0.546875 -1.457031,-1.011718 -0.382813,-0.464844 -0.621094,-1.003907 -0.714844,-1.609375 -0.07422,-0.476563 -0.03125,-0.957032 0.128906,-1.453125 0.05078,-0.148438 0.07031,-0.25 0.0625,-0.308594 -0.01172,-0.08594 -0.05469,-0.15625 -0.125,-0.210938 -0.101562,-0.07031 -0.230468,-0.109375 -0.390625,-0.125 z m 0,0"
       style="fill:#2347a3;fill-opacity:1;fill-rule:nonzero;stroke:none" />
    <path
       id="path96"
       d="m 39.085938,75.519531 -2.699219,1.066407 2.652344,1.207031 z m 0.367187,-0.128906 -0.05469,2.5625 1.035156,0.46875 c 0.253906,0.117188 0.445312,0.179688 0.570312,0.179688 0.101563,0.0039 0.191407,-0.04297 0.269532,-0.136719 0.07813,-0.09375 0.132812,-0.300781 0.164062,-0.621094 l 0.179688,0.0039 -0.04687,2.085938 -0.179688,-0.0039 c -0.04297,-0.277344 -0.101562,-0.457032 -0.179687,-0.539063 -0.152344,-0.171875 -0.464844,-0.363281 -0.9375,-0.574219 l -5.39844,-2.445312 0.0039,-0.171875 5.554688,-2.183594 c 0.445312,-0.179687 0.738281,-0.339844 0.871094,-0.488281 0.136718,-0.148438 0.214843,-0.359375 0.238281,-0.628906 l 0.179687,0.0039 -0.05469,2.613281 -0.183594,-0.0039 c -0.0078,-0.265625 -0.04687,-0.441406 -0.117187,-0.535156 -0.07422,-0.09766 -0.164063,-0.144532 -0.273438,-0.148438 -0.140625,0 -0.371094,0.05859 -0.679687,0.183594 z m 0,0"
       style="fill:#2347a3;fill-opacity:1;fill-rule:nonzero;stroke:none" />
    <path
       id="path98"
       d="m 36.332031,65.867188 5.304688,5.433593 0.503906,-2.667968 c 0.07813,-0.410157 0.04687,-0.742188 -0.08984,-0.996094 -0.136718,-0.25 -0.464843,-0.515625 -0.980468,-0.789063 l 0.05859,-0.152343 1.664063,0.632812 -1,5.296875 -0.179688,-0.03125 -5.148437,-5.300781 -0.394531,2.082031 c -0.06641,0.347656 -0.07422,0.605469 -0.03125,0.773438 0.04687,0.167968 0.136718,0.308593 0.261718,0.417968 0.128907,0.109375 0.378907,0.234375 0.757813,0.375 l -0.03516,0.179688 -1.601563,-0.441406 z m 0,0"
       style="fill:#2347a3;fill-opacity:1;fill-rule:nonzero;stroke:none" />
    <path
       id="path100"
       d="m 43.746094,63.792969 0.171875,0.05469 -0.863281,2.703125 -0.171875,-0.05469 0.07031,-0.226563 c 0.08594,-0.257812 0.07031,-0.472656 -0.04297,-0.636718 -0.07813,-0.109375 -0.304687,-0.21875 -0.683593,-0.339844 L 38.152344,63.992188 C 37.832031,63.890625 37.617188,63.84375 37.5,63.851563 c -0.08594,0.0078 -0.175781,0.04687 -0.261719,0.128906 -0.117187,0.109375 -0.199218,0.242187 -0.246093,0.390625 l -0.07422,0.222656 -0.171875,-0.05469 0.863281,-2.703125 0.171875,0.05469 -0.07422,0.230469 c -0.08203,0.253906 -0.0625,0.46875 0.05078,0.632812 0.07422,0.109375 0.300781,0.226563 0.679687,0.347657 l 4.074219,1.296875 c 0.320312,0.101562 0.535156,0.148437 0.652344,0.140625 0.08594,-0.0078 0.175781,-0.05078 0.261718,-0.132813 0.117188,-0.109375 0.199219,-0.238281 0.246094,-0.386719 z m 0,0"
       style="fill:#2347a3;fill-opacity:1;fill-rule:nonzero;stroke:none" />
    <path
       id="path102"
       d="m 39.640625,57.542969 c -0.257812,0.535156 -0.265625,1.058594 -0.02344,1.570312 0.296875,0.636719 0.921875,1.1875 1.875,1.644532 0.972656,0.46875 1.820312,0.621093 2.546875,0.457031 0.554687,-0.128906 0.957031,-0.457031 1.207031,-0.980469 0.269531,-0.558594 0.273437,-1.128906 0.01172,-1.703125 C 45,57.957031 44.398438,57.441406 43.453125,56.988281 c -1.019531,-0.492187 -1.875,-0.65625 -2.570312,-0.496093 -0.554688,0.132812 -0.96875,0.480468 -1.242188,1.050781 m -0.28125,-0.238281 C 39.730469,56.527344 40.347656,56 41.207031,55.714844 42.070313,55.429688 42.941406,55.5 43.820313,55.921875 c 0.90625,0.4375 1.523437,1.085938 1.84375,1.945313 0.324218,0.859375 0.289062,1.695312 -0.09766,2.507812 -0.398437,0.820313 -1.019531,1.371094 -1.875,1.648438 -0.851562,0.28125 -1.742187,0.195312 -2.667968,-0.25 C 40.078125,61.316406 39.457031,60.625 39.167969,59.6875 38.921875,58.878906 38.984375,58.085938 39.359375,57.304688"
       style="fill:#2347a3;fill-opacity:1;fill-rule:nonzero;stroke:none" />
    <path
       id="path104"
       d="m 41.625,53.167969 1.070313,-1.441406 6.402343,-0.285157 -3.066406,-2.28125 c -0.324219,-0.242187 -0.554687,-0.355468 -0.691406,-0.34375 -0.183594,0.01563 -0.351563,0.128907 -0.503906,0.335938 l -0.140625,0.183594 -0.144532,-0.105469 1.375,-1.851563 0.144532,0.109375 -0.136719,0.1875 c -0.167969,0.226563 -0.21875,0.433594 -0.152344,0.628907 0.03906,0.121093 0.210938,0.289062 0.507813,0.511718 l 4.480468,3.332032 -0.105468,0.140625 -6.886719,0.320312 3.273437,2.433594 c 0.328125,0.242187 0.554688,0.359375 0.691407,0.347656 0.183593,-0.01563 0.351562,-0.128906 0.503906,-0.335937 l 0.140625,-0.1875 0.144531,0.109375 -1.375,1.847656 -0.144531,-0.109375 0.136719,-0.183594 c 0.167968,-0.226562 0.21875,-0.4375 0.152343,-0.632812 -0.03906,-0.117188 -0.207031,-0.289063 -0.507812,-0.511719 l -3.691406,-2.746094 c -0.296875,0.01953 -0.503907,0.04687 -0.621094,0.08594 -0.117188,0.03516 -0.253906,0.113281 -0.417969,0.230468 -0.08203,0.05859 -0.179687,0.164063 -0.292969,0.320313 z m 0,0"
       style="fill:#2347a3;fill-opacity:1;fill-rule:nonzero;stroke:none" />
    <path
       id="path106"
       d="m 48.574219,45.273438 1.800781,1.898437 1.054688,-1 c 0.273437,-0.257812 0.417968,-0.472656 0.433593,-0.644531 0.01953,-0.226563 -0.09375,-0.480469 -0.339843,-0.769531 l 0.132812,-0.125 1.582031,1.675781 -0.128906,0.125 c -0.257812,-0.203125 -0.429687,-0.324219 -0.527344,-0.355469 -0.121093,-0.04297 -0.25,-0.04297 -0.394531,0 -0.140625,0.04687 -0.3125,0.164063 -0.511719,0.355469 l -1.058593,1 1.5,1.582031 c 0.203125,0.214844 0.335937,0.335938 0.398437,0.363281 0.0625,0.02734 0.128906,0.03125 0.203125,0.01563 0.07031,-0.01953 0.175781,-0.08984 0.304688,-0.214843 l 0.816406,-0.773438 c 0.273437,-0.253906 0.453125,-0.460937 0.539062,-0.617187 0.08984,-0.152344 0.136719,-0.339844 0.144532,-0.558594 0.0078,-0.285156 -0.05078,-0.648438 -0.179688,-1.085938 l 0.144531,-0.136718 0.726563,1.597656 -3.707031,3.507812 -0.125,-0.128906 0.171875,-0.164062 c 0.113281,-0.105469 0.195312,-0.234375 0.246093,-0.386719 0.03906,-0.109375 0.03516,-0.214844 -0.0078,-0.316406 -0.04298,-0.101568 -0.1797,-0.269537 -0.39845,-0.503912 L 48.4375,46.492188 C 48.148438,46.1875 47.9375,46.027344 47.8125,46.015625 47.636719,46 47.449219,46.085938 47.25,46.273438 l -0.167969,0.164062 -0.125,-0.132812 3.707032,-3.507813 1.050781,1.003906 -0.140625,0.132813 c -0.289063,-0.207031 -0.507813,-0.328125 -0.65625,-0.367188 -0.152344,-0.03906 -0.308594,-0.02734 -0.472656,0.03906 -0.128907,0.05078 -0.3125,0.191406 -0.550782,0.417969 z m 0,0"
       style="fill:#2347a3;fill-opacity:1;fill-rule:nonzero;stroke:none" />
    <path
       id="path108"
       d="m 59.726563,36.5625 1.191406,1.726563 -0.148438,0.08594 c -0.410156,-0.367187 -0.796875,-0.597656 -1.164062,-0.6875 -0.535156,-0.132812 -1.066406,-0.04687 -1.601563,0.261719 -0.730468,0.421875 -1.121093,1.03125 -1.167968,1.828125 -0.03906,0.671875 0.136718,1.34375 0.523437,2.019531 0.316406,0.546875 0.710938,0.984375 1.179688,1.3125 0.472656,0.332031 0.941406,0.503906 1.402343,0.515625 0.464844,0.01172 0.878907,-0.08594 1.238282,-0.292969 0.210937,-0.121093 0.402343,-0.265625 0.566406,-0.433593 0.167969,-0.167969 0.3125,-0.355469 0.4375,-0.566407 l -0.957031,-1.65625 c -0.164063,-0.289062 -0.292969,-0.464843 -0.390625,-0.53125 -0.09375,-0.0625 -0.199219,-0.08984 -0.320313,-0.08203 -0.117187,0.0039 -0.292969,0.07422 -0.523437,0.207031 l -0.09375,-0.160156 2.222656,-1.277344 0.09375,0.15625 -0.105469,0.0625 c -0.222656,0.128907 -0.332031,0.289063 -0.328125,0.480469 0.0039,0.136719 0.09375,0.359375 0.273438,0.667969 l 1.007812,1.757812 c -0.222656,0.359375 -0.46875,0.671875 -0.738281,0.9375 -0.269531,0.261719 -0.597656,0.503907 -0.980469,0.726563 -1.109375,0.640625 -2.15625,0.769531 -3.140625,0.390625 -0.738281,-0.285156 -1.308594,-0.777344 -1.710937,-1.472656 -0.292969,-0.507813 -0.449219,-1.058594 -0.472657,-1.660157 -0.02734,-0.714843 0.125,-1.367187 0.453125,-1.953125 0.28125,-0.488281 0.707032,-0.898437 1.28125,-1.226562 0.207032,-0.117188 0.40625,-0.210938 0.597657,-0.277344 0.1875,-0.0625 0.472656,-0.128906 0.851562,-0.191406 0.195313,-0.03125 0.316406,-0.0625 0.371094,-0.09375 0.05469,-0.03125 0.08594,-0.08203 0.09375,-0.15625 0.01172,-0.07031 -0.02344,-0.179688 -0.09766,-0.328125 z m 0,0"
       style="fill:#2347a3;fill-opacity:1;fill-rule:nonzero;stroke:none" />
    <path
       id="path110"
       d="m 63.898438,35.320313 0.902343,2.457031 1.367188,-0.5 c 0.355469,-0.128906 0.570312,-0.269531 0.652344,-0.421875 0.105468,-0.199219 0.105468,-0.476563 -0.0078,-0.839844 l 0.167969,-0.0625 0.796875,2.164063 -0.171875,0.0625 c -0.152344,-0.289063 -0.265625,-0.464844 -0.339844,-0.535157 -0.09375,-0.08594 -0.214844,-0.136718 -0.363281,-0.152343 -0.148438,-0.01563 -0.351563,0.02344 -0.609375,0.121093 l -1.367188,0.5 0.753907,2.046875 c 0.101562,0.277344 0.171875,0.441407 0.21875,0.492188 0.04687,0.04687 0.105468,0.08203 0.179687,0.09375 0.07422,0.01172 0.199219,-0.01172 0.371094,-0.07422 L 67.5,40.28125 c 0.351563,-0.128906 0.597656,-0.246094 0.742188,-0.351562 0.136718,-0.109375 0.257812,-0.261719 0.351562,-0.457032 0.117188,-0.261718 0.207031,-0.617187 0.265625,-1.074218 l 0.183594,-0.06641 0.03516,1.757813 -4.789062,1.757812 -0.0625,-0.167968 0.222656,-0.08203 c 0.144531,-0.05469 0.269531,-0.140625 0.375,-0.257812 0.08203,-0.08594 0.121094,-0.183594 0.121094,-0.292969 0,-0.113281 -0.05859,-0.320312 -0.167969,-0.621094 l -1.484375,-4.039062 c -0.144531,-0.394531 -0.273438,-0.621094 -0.386719,-0.683594 -0.15625,-0.08203 -0.359375,-0.07422 -0.617187,0.01953 l -0.21875,0.08203 -0.06641,-0.171875 4.792969,-1.761719 0.566406,1.339844 -0.179687,0.0625 c -0.183594,-0.300782 -0.335938,-0.5 -0.460938,-0.59375 -0.121093,-0.09375 -0.269531,-0.144532 -0.445312,-0.152344 -0.140625,0 -0.363281,0.05469 -0.671875,0.167969 z m 0,0"
       style="fill:#2347a3;fill-opacity:1;fill-rule:nonzero;stroke:none" />
    <path
       id="path112"
       d="m 72.175781,32.808594 c -0.582031,0.105469 -1.011718,0.40625 -1.285156,0.902344 -0.339844,0.621093 -0.414062,1.449218 -0.222656,2.484375 0.195312,1.066406 0.574219,1.839843 1.132812,2.328125 0.429688,0.375 0.929688,0.507812 1.503907,0.398437 C 73.914063,38.8125 74.375,38.480469 74.6875,37.929688 75,37.378906 75.058594,36.589844 74.871094,35.5625 c -0.207031,-1.113281 -0.578125,-1.902344 -1.117188,-2.371094 -0.433593,-0.371093 -0.957031,-0.5 -1.578125,-0.382812 m 0.02734,-0.367188 c 0.84375,-0.15625 1.632813,0.03125 2.371094,0.558594 0.738281,0.527344 1.195312,1.269531 1.371094,2.230469 0.183593,0.992187 0.02344,1.867187 -0.484375,2.636719 -0.503907,0.769531 -1.199219,1.234375 -2.085938,1.398437 -0.894531,0.164063 -1.707031,-0.01953 -2.433594,-0.542969 -0.726562,-0.523437 -1.183593,-1.292968 -1.371093,-2.304687 -0.1875,-1.035156 0.0078,-1.941406 0.59375,-2.726563 0.507812,-0.675781 1.1875,-1.09375 2.039062,-1.25"
       style="fill:#2347a3;fill-opacity:1;fill-rule:nonzero;stroke:none" />
    <path
       id="path114"
       d="m 83.183594,31.738281 0.140625,2.09375 -0.171875,-0.0039 C 82.988281,33.304688 82.769531,32.910156 82.5,32.640625 c -0.386719,-0.386719 -0.890625,-0.582031 -1.507812,-0.59375 -0.84375,-0.01172 -1.492188,0.3125 -1.941407,0.972656 -0.375,0.554688 -0.570312,1.222657 -0.582031,2 -0.01172,0.632813 0.105469,1.210938 0.339844,1.734375 0.234375,0.527344 0.550781,0.910157 0.941406,1.160157 0.390625,0.25 0.792969,0.375 1.210938,0.382812 0.246093,0.0039 0.480468,-0.02344 0.710937,-0.08203 0.230469,-0.05859 0.449219,-0.144531 0.660156,-0.261719 l 0.03516,-1.914062 c 0.0039,-0.332032 -0.01953,-0.550782 -0.07031,-0.652344 -0.04687,-0.105469 -0.125,-0.183594 -0.226562,-0.238281 -0.109375,-0.05469 -0.292969,-0.08594 -0.558594,-0.08984 v -0.1875 l 2.566406,0.04297 -0.0039,0.183593 h -0.121094 c -0.253906,-0.0039 -0.429687,0.07813 -0.527344,0.246094 -0.06641,0.117188 -0.101562,0.355469 -0.109375,0.710938 l -0.03125,2.023437 c -0.378906,0.199219 -0.75,0.339844 -1.117187,0.429688 -0.363281,0.08594 -0.769531,0.128906 -1.214844,0.121093 -1.28125,-0.01953 -2.246094,-0.445312 -2.898437,-1.273437 -0.488282,-0.625 -0.726563,-1.339844 -0.710938,-2.140625 0.0078,-0.582031 0.15625,-1.140625 0.445313,-1.667969 0.339843,-0.632812 0.804687,-1.113281 1.390625,-1.445312 0.488281,-0.277344 1.0625,-0.40625 1.726562,-0.398438 0.238281,0.0039 0.457031,0.02734 0.652344,0.07031 0.195312,0.04297 0.476562,0.132812 0.835937,0.273437 0.179688,0.07031 0.300782,0.105469 0.363282,0.105469 0.0625,0 0.113281,-0.02734 0.160156,-0.08203 0.04297,-0.05469 0.07422,-0.167969 0.08594,-0.332032 z m 0,0"
       style="fill:#2347a3;fill-opacity:1;fill-rule:nonzero;stroke:none" />
    <path
       id="path116"
       d="m 86.820313,35.542969 c 0.05859,0.01172 0.113281,0.01953 0.15625,0.03125 0.04297,0.01172 0.08203,0.01953 0.109375,0.02344 0.621093,0.113282 1.117187,0.06641 1.480468,-0.144531 0.363282,-0.210937 0.585938,-0.523437 0.660157,-0.941406 0.07813,-0.40625 0.01172,-0.757813 -0.195313,-1.058594 -0.207031,-0.304687 -0.523437,-0.492187 -0.941406,-0.570312 -0.183594,-0.03516 -0.441406,-0.05078 -0.769531,-0.04687 z m 4.003906,4.203125 -1.738281,-0.324219 -1.640625,-3.449219 c -0.164063,-0.02344 -0.300782,-0.04687 -0.398438,-0.06641 -0.04297,-0.0078 -0.08594,-0.01563 -0.136719,-0.02734 -0.04687,-0.0078 -0.09766,-0.01953 -0.148437,-0.03516 l -0.347656,1.894531 c -0.07422,0.410157 -0.07813,0.671875 -0.0078,0.785157 0.09766,0.164062 0.265625,0.269531 0.511719,0.316406 l 0.253906,0.04687 -0.03516,0.175781 -2.789063,-0.515625 0.03125,-0.175781 0.246094,0.04297 c 0.277344,0.05078 0.488281,0 0.640625,-0.160157 0.08594,-0.08594 0.160156,-0.316406 0.230469,-0.6875 l 0.777344,-4.203125 c 0.07422,-0.410156 0.07813,-0.675781 0.0078,-0.789062 -0.101562,-0.164063 -0.273437,-0.269531 -0.519531,-0.316406 l -0.246094,-0.04297 0.03516,-0.179688 2.371094,0.441407 c 0.691406,0.125 1.191406,0.269531 1.5,0.429687 0.308594,0.164063 0.554688,0.402344 0.734375,0.714844 0.179688,0.3125 0.234375,0.65625 0.164063,1.027344 -0.07422,0.402343 -0.269532,0.726562 -0.582032,0.972656 C 89.421875,35.867188 88.976563,36 88.410156,36.019531 l 1,2.117188 c 0.226563,0.484375 0.4375,0.820312 0.632813,1 0.195312,0.183594 0.464844,0.324219 0.8125,0.429687 z m 0,0"
       style="fill:#2347a3;fill-opacity:1;fill-rule:nonzero;stroke:none" />
    <path
       id="path118"
       d="M 95.84375,38.863281 95.730469,35.960938 93.710938,38.0625 Z m 0,0.382813 -2.402344,-0.898438 -0.789062,0.820313 c -0.191406,0.199219 -0.308594,0.359375 -0.355469,0.480469 -0.03516,0.09375 -0.01953,0.191406 0.03906,0.300781 0.06641,0.101562 0.242187,0.222656 0.53125,0.355469 l -0.0625,0.167968 -1.949219,-0.730468 0.05859,-0.167969 c 0.277343,0.05078 0.46875,0.05469 0.574218,0.0078 0.207032,-0.08594 0.492188,-0.320312 0.847657,-0.695312 l 4.097656,-4.285156 0.160156,0.0625 0.222656,5.964843 c 0.01563,0.480469 0.07422,0.808594 0.167969,0.984375 0.09375,0.179688 0.265625,0.320313 0.515625,0.429688 l -0.0625,0.171875 -2.449219,-0.917969 0.06641,-0.171875 c 0.25,0.08203 0.433593,0.101563 0.546875,0.06641 0.109375,-0.03906 0.1875,-0.105468 0.222656,-0.207031 0.05078,-0.136719 0.07031,-0.371094 0.05859,-0.703125 z m 0,0"
       style="fill:#2347a3;fill-opacity:1;fill-rule:nonzero;stroke:none" />
    <path
       id="path120"
       d="m 102.40234,37.902344 -1.29296,2.257812 1.04687,0.597657 c 0.23828,0.140625 0.44531,0.1875 0.61719,0.144531 0.17187,-0.04297 0.36719,-0.207031 0.58203,-0.5 l 0.15625,0.08984 -1.11328,1.945312 -0.15625,-0.08984 c 0.125,-0.226562 0.1875,-0.40625 0.19531,-0.542968 0.004,-0.136719 -0.0273,-0.257813 -0.0977,-0.367188 -0.0664,-0.105469 -0.19531,-0.214844 -0.38671,-0.328125 l -1.04688,-0.597656 -1.03125,1.804687 c -0.167969,0.289063 -0.261719,0.492188 -0.277344,0.609375 -0.01172,0.08594 0.01172,0.179688 0.07422,0.28125 0.08594,0.140625 0.195313,0.25 0.332034,0.324219 l 0.20703,0.121094 -0.0898,0.15625 -2.464839,-1.414063 0.08984,-0.15625 0.203125,0.117188 c 0.234375,0.136719 0.445312,0.164062 0.636719,0.08984 0.117187,-0.05078 0.273437,-0.25 0.472656,-0.59375 l 2.124999,-3.710938 c 0.16797,-0.292969 0.26172,-0.496094 0.27735,-0.609375 0.0117,-0.08594 -0.0117,-0.179687 -0.0703,-0.28125 -0.082,-0.136719 -0.19141,-0.246094 -0.33204,-0.324219 l -0.20312,-0.117187 0.0937,-0.15625 4.26953,2.449219 -0.66797,1.292968 -0.14453,-0.08594 c 0.0781,-0.308594 0.10547,-0.554688 0.0781,-0.738281 -0.0234,-0.179688 -0.0898,-0.339844 -0.19922,-0.476563 -0.11328,-0.140625 -0.31641,-0.292969 -0.61719,-0.464844 z m 0,0"
       style="fill:#2347a3;fill-opacity:1;fill-rule:nonzero;stroke:none" />
    <path
       id="path122"
       d="m 104.89453,46.808594 -0.10547,0.148437 -2.28906,-1.679687 0.10938,-0.148438 0.1875,0.140625 c 0.21875,0.160157 0.42578,0.214844 0.62109,0.160157 0.125,-0.03906 0.30469,-0.21875 0.53906,-0.539063 l 2.53125,-3.449219 c 0.19922,-0.269531 0.3125,-0.460937 0.34375,-0.570312 0.0195,-0.08594 0.008,-0.183594 -0.0391,-0.289063 -0.0703,-0.148437 -0.16797,-0.265625 -0.29297,-0.359375 l -0.19141,-0.136718 0.10938,-0.148438 2.28906,1.679688 -0.10937,0.144531 -0.19141,-0.140625 c -0.21875,-0.160156 -0.42578,-0.210938 -0.61719,-0.15625 C 107.66016,41.5 107.47656,41.679688 107.24609,42 l -2.53515,3.445313 c -0.19531,0.273437 -0.3086,0.464843 -0.33985,0.574218 -0.0234,0.08594 -0.008,0.183594 0.043,0.289063 0.0664,0.148437 0.16407,0.265625 0.28907,0.359375 z m 0,0"
       style="fill:#2347a3;fill-opacity:1;fill-rule:nonzero;stroke:none" />
    <path
       id="path124"
       d="m 114.10547,46.292969 -1.44141,1.734375 -0.10937,-0.105469 c 0.32031,-0.628906 0.44531,-1.175781 0.3789,-1.648437 -0.0664,-0.472657 -0.28906,-0.890625 -0.66796,-1.253907 -0.31641,-0.300781 -0.6836,-0.496093 -1.09375,-0.582031 -0.41016,-0.08203 -0.85938,-0.01563 -1.33985,0.195313 -0.48828,0.214843 -0.98047,0.582031 -1.48047,1.105468 -0.41406,0.433594 -0.70312,0.875 -0.86718,1.328125 -0.16407,0.449219 -0.1875,0.894532 -0.0703,1.328125 0.11719,0.4375 0.35547,0.824219 0.71485,1.167969 0.30859,0.296875 0.64843,0.492188 1.01172,0.585938 0.36328,0.09375 0.875,0.07813 1.53906,-0.04687 l 0.043,0.175781 c -0.64453,0.199219 -1.22266,0.242187 -1.73438,0.136719 -0.50781,-0.109375 -0.98437,-0.375 -1.42578,-0.792969 -0.79297,-0.757813 -1.125,-1.640625 -1,-2.644531 0.0937,-0.75 0.42578,-1.417969 0.98828,-2.011719 0.45703,-0.480469 0.98438,-0.816406 1.58203,-1.011719 0.59375,-0.195312 1.1875,-0.222656 1.77344,-0.08594 0.58594,0.136718 1.09766,0.421875 1.54688,0.84375 0.34375,0.332031 0.60546,0.742187 0.77734,1.234375 0.0508,0.144531 0.0977,0.238281 0.14062,0.277343 0.0625,0.0625 0.14063,0.09375 0.23047,0.09375 0.1211,-0.0078 0.25,-0.05469 0.38282,-0.140625 z m 0,0"
       style="fill:#2347a3;fill-opacity:1;fill-rule:nonzero;stroke:none" />
    <path
       id="path126"
       d="m 114.61328,53.699219 1.50781,-2.480469 -2.84375,0.640625 z m -0.21094,0.324219 -1.50781,-2.074219 -1.10547,0.25 c -0.27734,0.0625 -0.46484,0.128906 -0.5664,0.203125 -0.082,0.05859 -0.125,0.148437 -0.12891,0.273437 -0.008,0.121094 0.0742,0.320313 0.24219,0.589844 l -0.14453,0.105469 -1.22266,-1.6875 0.14453,-0.105469 c 0.19922,0.195313 0.35547,0.304688 0.46875,0.324219 0.22266,0.04297 0.58985,0.0039 1.09375,-0.113281 l 5.78125,-1.316407 0.0977,0.140625 -3.10156,5.101563 c -0.25,0.410156 -0.38672,0.714844 -0.40235,0.914062 -0.0195,0.199219 0.043,0.414063 0.19141,0.640625 l -0.14844,0.105469 -1.53516,-2.113281 0.14844,-0.105469 c 0.16797,0.207031 0.30469,0.324219 0.42188,0.355469 0.11328,0.03125 0.21484,0.01563 0.30078,-0.04687 0.11719,-0.08594 0.26172,-0.269531 0.4375,-0.558594 z m 0,0"
       style="fill:#2347a3;fill-opacity:1;fill-rule:nonzero;stroke:none" />
    <path
       id="path128"
       d="m 118.98047,59.796875 c 0.0352,0.167969 0.0742,0.320313 0.11328,0.449219 0.0352,0.128906 0.0742,0.238281 0.11328,0.324219 0.13281,0.308593 0.36719,0.527343 0.70703,0.648437 0.33594,0.125 0.69922,0.101563 1.08203,-0.0625 0.26172,-0.113281 0.48047,-0.269531 0.66407,-0.476562 0.17578,-0.203125 0.28125,-0.429688 0.30859,-0.675782 0.0273,-0.246093 -0.0117,-0.492187 -0.12109,-0.746093 -0.0664,-0.152344 -0.17969,-0.335938 -0.33985,-0.550782 z m -0.25781,0.109375 -1.76953,0.761719 c -0.38282,0.164062 -0.60547,0.304687 -0.66016,0.429687 -0.082,0.171875 -0.0742,0.371094 0.0234,0.601563 l 0.10156,0.234375 -0.16797,0.07031 -1.12109,-2.609375 0.16797,-0.07031 0.0977,0.230469 c 0.10938,0.257812 0.27344,0.40625 0.48828,0.445312 0.11719,0.01953 0.35157,-0.04687 0.69922,-0.195312 l 3.92969,-1.6875 c 0.38281,-0.164063 0.60547,-0.308594 0.66016,-0.429688 0.082,-0.171875 0.0742,-0.375 -0.0234,-0.601562 l -0.10156,-0.230469 0.16796,-0.07031 0.95704,2.230469 c 0.23437,0.542969 0.36328,0.996094 0.38671,1.359375 0.0234,0.359375 -0.0547,0.707031 -0.22656,1.035156 -0.17578,0.332032 -0.44531,0.574219 -0.80859,0.730469 -0.4961,0.214844 -0.97266,0.222656 -1.42188,0.03125 -0.45312,-0.195312 -0.80859,-0.589844 -1.0625,-1.191406 -0.0664,-0.144531 -0.12109,-0.308594 -0.17187,-0.488281 -0.0547,-0.179688 -0.10156,-0.375 -0.14453,-0.585938"
       style="fill:#2347a3;fill-opacity:1;fill-rule:nonzero;stroke:none" />
    <path
       id="path130"
       d="m 121.10156,65.507813 c 0.0156,0.0625 0.0273,0.113281 0.0352,0.15625 0.0117,0.04687 0.0195,0.08203 0.0273,0.109375 0.15235,0.613281 0.40235,1.042968 0.74219,1.289062 0.34375,0.242188 0.71875,0.316406 1.13281,0.210938 0.39844,-0.09766 0.69532,-0.304688 0.88282,-0.621094 0.1875,-0.3125 0.23046,-0.675781 0.125,-1.089844 -0.043,-0.183594 -0.13672,-0.421875 -0.27344,-0.722656 z m -2.16015,5.386718 -0.42969,-1.714843 2.45703,-2.921875 c -0.0469,-0.160157 -0.082,-0.292969 -0.10547,-0.394532 -0.008,-0.03906 -0.0195,-0.08203 -0.0312,-0.132812 -0.008,-0.04687 -0.0195,-0.09766 -0.0312,-0.148438 l -1.86328,0.46875 c -0.40625,0.101563 -0.64453,0.207032 -0.72266,0.320313 -0.10546,0.15625 -0.13281,0.351562 -0.0703,0.59375 l 0.0625,0.25 -0.17578,0.04297 -0.6875,-2.75 0.17578,-0.04687 0.0586,0.242187 c 0.0703,0.273438 0.20703,0.445313 0.41015,0.515625 0.11719,0.04297 0.35547,0.01953 0.72266,-0.07422 l 4.14844,-1.035156 c 0.40234,-0.101562 0.64453,-0.210937 0.72265,-0.324219 0.10547,-0.15625 0.12891,-0.355468 0.0703,-0.601562 l -0.0625,-0.238281 0.17579,-0.04687 0.58593,2.339843 c 0.17188,0.683594 0.2461,1.199219 0.22657,1.546875 -0.0156,0.351563 -0.13282,0.667969 -0.34375,0.960938 -0.20704,0.292969 -0.5,0.488281 -0.86719,0.578125 -0.39844,0.101562 -0.77344,0.05859 -1.125,-0.128906 -0.35547,-0.183594 -0.66016,-0.53125 -0.91406,-1.042969 l -1.51172,1.789062 c -0.34766,0.40625 -0.56641,0.738282 -0.64844,0.992188 -0.0859,0.253906 -0.10156,0.558594 -0.0508,0.917969 z m 0,0"
       style="fill:#2347a3;fill-opacity:1;fill-rule:nonzero;stroke:none" />
    <path
       id="path132"
       d="m 125.58594,73.921875 c -0.043,-0.589844 -0.29688,-1.046875 -0.75781,-1.375 -0.57422,-0.40625 -1.39063,-0.574219 -2.44141,-0.5 -1.07813,0.07422 -1.89453,0.363281 -2.44141,0.863281 -0.41797,0.386719 -0.60547,0.867188 -0.5664,1.449219 0.043,0.621094 0.32031,1.117188 0.83593,1.488281 0.51172,0.371094 1.28907,0.519532 2.32813,0.445313 1.13281,-0.07813 1.95703,-0.359375 2.48047,-0.84375 0.41797,-0.386719 0.60547,-0.894531 0.5625,-1.527344 m 0.35937,0.07031 c 0.0625,0.855468 -0.21484,1.621093 -0.82031,2.292968 -0.60547,0.675782 -1.39844,1.046875 -2.37109,1.113282 -1.00391,0.07031 -1.85938,-0.1875 -2.56641,-0.773438 -0.70703,-0.589844 -1.08984,-1.332031 -1.15234,-2.230469 -0.0625,-0.910156 0.20703,-1.695312 0.80859,-2.359375 0.60156,-0.664062 1.41797,-1.03125 2.44531,-1.101562 1.05078,-0.07422 1.92969,0.222656 2.64063,0.890625 0.61719,0.582031 0.95703,1.304687 1.01562,2.167969"
       style="fill:#2347a3;fill-opacity:1;fill-rule:nonzero;stroke:none" />
    <path
       id="path134"
       d="m 125.44922,84.4375 -1.55469,-0.07031 0.0195,-0.183594 c 0.27344,-0.01172 0.47266,-0.04297 0.59375,-0.09375 0.19922,-0.08203 0.34766,-0.203125 0.45703,-0.359375 0.10157,-0.160156 0.16797,-0.375 0.19532,-0.644531 l 0.0859,-0.933594 -5.03515,-0.46875 c -0.40625,-0.03906 -0.66406,-0.01953 -0.77344,0.05859 -0.14453,0.109375 -0.23047,0.292968 -0.25781,0.550781 l -0.0195,0.226562 -0.1836,-0.01563 0.26563,-2.796875 0.17969,0.01953 -0.0234,0.234375 c -0.0234,0.277343 0.0391,0.480468 0.19922,0.617187 0.0937,0.07813 0.32812,0.136719 0.69922,0.171875 l 5.03515,0.472656 0.0742,-0.792968 c 0.0273,-0.308594 0.0273,-0.53125 -0.008,-0.664063 -0.043,-0.171875 -0.14844,-0.328125 -0.3125,-0.464844 -0.16406,-0.136718 -0.39453,-0.230468 -0.69141,-0.28125 l 0.0195,-0.183593 1.53907,0.222656 z m 0,0"
       style="fill:#2347a3;fill-opacity:1;fill-rule:nonzero;stroke:none" />
    <path
       id="path136"
       d="m 124.37891,87.703125 -2.53516,-0.644531 -0.35937,1.410156 c -0.0937,0.363281 -0.10157,0.621094 -0.0234,0.773438 0.10547,0.199218 0.33594,0.359375 0.69531,0.46875 l -0.043,0.175781 -2.23437,-0.570313 0.0469,-0.175781 c 0.32031,0.03906 0.53516,0.04297 0.63281,0.02344 0.125,-0.02734 0.23438,-0.101563 0.33204,-0.214844 0.0937,-0.113281 0.17968,-0.304688 0.24609,-0.570313 l 0.35937,-1.410156 -2.11328,-0.539062 c -0.28125,-0.07422 -0.46093,-0.105469 -0.52734,-0.09766 -0.0703,0.01172 -0.12891,0.04297 -0.17969,0.09766 -0.0547,0.05078 -0.10156,0.167968 -0.14844,0.34375 L 118.25,87.863281 c -0.0937,0.363282 -0.13281,0.632813 -0.125,0.808594 0.008,0.179688 0.0664,0.359375 0.17578,0.550781 0.14453,0.246094 0.39063,0.519532 0.73047,0.824219 l -0.0469,0.191406 -1.46485,-0.964843 1.25781,-4.945313 0.17579,0.04687 -0.0547,0.226563 c -0.0391,0.152343 -0.0391,0.304687 0,0.457031 0.0195,0.113281 0.082,0.203125 0.17187,0.265625 0.0898,0.0625 0.29297,0.132812 0.60547,0.210937 l 4.16797,1.066407 c 0.40625,0.101562 0.66797,0.125 0.78516,0.06641 0.15234,-0.08203 0.26562,-0.253906 0.33203,-0.519531 l 0.0586,-0.226563 0.17578,0.04687 -1.26172,4.941406 -1.42187,-0.289062 0.0469,-0.183594 c 0.35157,0.01953 0.60157,0.0078 0.75,-0.04297 0.14454,-0.04687 0.27344,-0.140625 0.37891,-0.28125 0.082,-0.113281 0.16016,-0.332031 0.24219,-0.648437 z m 0,0"
       style="fill:#2347a3;fill-opacity:1;fill-rule:nonzero;stroke:none" />
    <path
       id="path138"
       d="m 121.07031,98.015625 -1.45312,-0.554687 0.0742,-0.167969 c 0.26562,0.07813 0.46484,0.109375 0.59375,0.101562 0.21484,-0.01953 0.39453,-0.08594 0.54687,-0.203125 0.14453,-0.117187 0.27344,-0.304687 0.38672,-0.554687 l 0.37109,-0.851563 -4.63281,-2.027343 c -0.375,-0.160157 -0.625,-0.222657 -0.7539,-0.179688 -0.17188,0.05469 -0.3125,0.203125 -0.41407,0.4375 l -0.0937,0.210938 -0.16406,-0.07031 1.12109,-2.574219 0.16797,0.07422 -0.0977,0.214844 c -0.10938,0.253906 -0.10938,0.46875 -0.004,0.644531 0.0664,0.109375 0.26953,0.238281 0.61328,0.386719 l 4.63281,2.023437 0.32032,-0.730468 c 0.125,-0.28125 0.1875,-0.492188 0.19922,-0.632813 0.0117,-0.179687 -0.0391,-0.359375 -0.15235,-0.539062 -0.11328,-0.183594 -0.30078,-0.34375 -0.5664,-0.484375 l 0.0742,-0.167969 1.39063,0.691406 z m 0,0"
       style="fill:#2347a3;fill-opacity:1;fill-rule:nonzero;stroke:none" />
    <path
       id="path140"
       d="m 117.28906,104.12891 -1.34375,-0.78125 0.10157,-0.15625 c 0.25,0.12109 0.4375,0.18359 0.57031,0.19531 0.21484,0.0156 0.40234,-0.0195 0.57031,-0.11328 0.16406,-0.0937 0.32422,-0.25 0.46875,-0.48438 l 0.50781,-0.78125 -4.25,-2.742185 c -0.34375,-0.222656 -0.57812,-0.324219 -0.71093,-0.304687 -0.1836,0.03125 -0.34375,0.152343 -0.48047,0.371093 l -0.125,0.191407 -0.15625,-0.09766 1.52734,-2.359375 0.14844,0.09766 -0.125,0.195312 c -0.15235,0.238281 -0.1875,0.453125 -0.10938,0.640625 0.0469,0.117188 0.22657,0.273438 0.53907,0.476563 l 4.25,2.742187 0.42968,-0.66797 c 0.16797,-0.26172 0.26953,-0.45703 0.30078,-0.589842 0.0391,-0.175782 0.0195,-0.363282 -0.0625,-0.558594 -0.082,-0.199219 -0.24218,-0.386719 -0.48437,-0.566406 l 0.10547,-0.15625 1.26172,0.90625 z m 0,0"
       style="fill:#2347a3;fill-opacity:1;fill-rule:nonzero;stroke:none" />
    <path
       id="path142"
       d="m 111.03906,105.23828 2.75,0.9375 -1.23437,-2.64062 z m -0.35937,-0.14062 1.70312,-1.91407 -0.48437,-1.03125 c -0.11719,-0.2539 -0.22266,-0.42187 -0.32031,-0.50781 -0.0742,-0.0664 -0.17579,-0.0898 -0.29688,-0.0664 -0.11719,0.0195 -0.29297,0.14062 -0.51953,0.36718 l -0.13672,-0.12109 1.38281,-1.55859 0.13672,0.11718 c -0.14844,0.24219 -0.21875,0.41797 -0.21484,0.53125 0.008,0.22657 0.12109,0.57422 0.34375,1.04297 l 2.53125,5.35938 -0.11328,0.1289 -5.65235,-1.93359 c -0.44922,-0.15625 -0.77734,-0.21875 -0.97656,-0.19531 -0.19922,0.0273 -0.39453,0.13672 -0.58594,0.32812 l -0.13672,-0.12109 1.73438,-1.95313 0.13672,0.11719 c -0.16406,0.20703 -0.25,0.37109 -0.25781,0.48828 -0.008,0.1211 0.0312,0.21485 0.11328,0.28906 0.10547,0.0937 0.32031,0.19532 0.63672,0.30079 z m 0,0"
       style="fill:#2347a3;fill-opacity:1;fill-rule:nonzero;stroke:none" />
    <path
       id="path144"
       d="m 107.07422,111.49609 c -0.26953,0.20704 -0.57031,0.28907 -0.90234,0.2461 -0.33594,-0.043 -0.60938,-0.19922 -0.81641,-0.46485 -0.20703,-0.26953 -0.28906,-0.57031 -0.24609,-0.90625 0.043,-0.33593 0.19531,-0.60546 0.46484,-0.8125 0.26953,-0.20703 0.57031,-0.29296 0.90625,-0.25 0.33594,0.043 0.60547,0.19922 0.8125,0.46875 0.20703,0.26563 0.29297,0.57032 0.25,0.90235 -0.043,0.33594 -0.19922,0.60547 -0.46875,0.8164"
       style="fill:#2347a3;fill-opacity:1;fill-rule:nonzero;stroke:none" />
  </g>
</svg>
